<?xml version="1.0" standalone="no"?>
<!DOCTYPE svg PUBLIC "-//W3C//DTD SVG 20010904//EN"
 "http://www.w3.org/TR/2001/REC-SVG-20010904/DTD/svg10.dtd">
<svg version="1.0" xmlns="http://www.w3.org/2000/svg"
 width="64.000000pt" height="64.000000pt" viewBox="0 0 64.000000 64.000000"
 preserveAspectRatio="xMidYMid meet">

<g transform="translate(0.000000,64.000000) scale(0.100000,-0.100000)"
fill="#000000" stroke="none">
<path d="M448 553 l-14 -58 -71 -3 c-64 -3 -72 -1 -78 17 -9 30 -54 61 -87 61
-40 0 -88 -48 -88 -88 0 -33 31 -78 60 -87 19 -6 20 -16 20 -164 0 -207 -5
-201 172 -201 176 0 168 -12 168 256 0 193 -1 204 -19 204 -18 0 -18 2 -4 51
8 28 13 52 11 54 -1 2 -15 6 -29 10 -25 6 -27 4 -41 -52z m26 -61 c-13 -48
-28 -100 -32 -116 -4 -16 -13 -31 -20 -34 -11 -3 -3 32 44 196 8 29 19 50 23
47 5 -3 -2 -44 -15 -93z m-224 33 c13 -14 20 -28 17 -32 -4 -3 -16 3 -27 15
-24 26 -52 28 -74 6 -22 -22 -20 -50 6 -74 12 -11 18 -23 15 -27 -12 -12 -57
40 -57 66 0 33 37 71 70 71 15 0 36 -11 50 -25z m-25 -25 c3 -5 -3 -10 -14
-10 -13 0 -21 -8 -24 -22 -3 -20 -4 -21 -11 -5 -5 9 -6 24 -2 32 6 17 42 20
51 5z m195 -42 c0 -7 -6 -35 -14 -63 -9 -34 -18 -49 -27 -46 -8 3 -49 6 -91 9
l-78 4 0 54 0 54 105 0 c77 0 105 -3 105 -12z m88 -50 c-3 -60 -4 -63 -30 -66
l-26 -3 15 53 c21 78 21 78 33 78 7 0 10 -23 8 -62z m-80 -84 l82 -6 0 -104 0
-104 -150 0 -150 0 0 108 c0 60 3 112 7 116 4 4 35 5 68 2 33 -3 97 -8 143
-12z m67 -254 c-16 -18 -31 -20 -135 -20 -104 0 -119 2 -135 20 -18 20 -17 20
135 20 152 0 153 0 135 -20z"/>
<path d="M392 277 c-28 -29 -28 -38 1 -65 29 -28 38 -28 65 1 28 29 28 38 -1
65 -29 28 -38 28 -65 -1z m51 -49 c-15 -17 -17 -17 -35 -1 -17 15 -17 17 -1
35 15 17 17 17 35 1 17 -15 17 -17 1 -35z"/>
<path d="M262 227 c-28 -29 -28 -38 1 -65 29 -28 38 -28 65 1 28 29 28 38 -1
65 -29 28 -38 28 -65 -1z m51 -49 c-15 -17 -17 -17 -35 -1 -17 15 -17 17 -1
35 15 17 17 17 35 1 17 -15 17 -17 1 -35z"/>
</g>
</svg>
