<?xml version="1.0" standalone="no"?>
<!DOCTYPE svg PUBLIC "-//W3C//DTD SVG 20010904//EN"
 "http://www.w3.org/TR/2001/REC-SVG-20010904/DTD/svg10.dtd">
<svg version="1.0" xmlns="http://www.w3.org/2000/svg"
 width="512.000000pt" height="512.000000pt" viewBox="0 0 512.000000 512.000000"
 preserveAspectRatio="xMidYMid meet">

<g transform="translate(0.000000,512.000000) scale(0.100000,-0.100000)"
fill="#000000" stroke="none">
<path d="M1336 5101 c-64 -42 -66 -52 -66 -314 0 -250 1 -259 48 -309 24 -26
25 -29 18 -130 -10 -130 -27 -215 -65 -309 -54 -138 -96 -195 -252 -349 -80
-80 -155 -161 -165 -180 -18 -34 -19 -94 -22 -1660 -3 -1836 -9 -1684 78
-1770 83 -84 54 -81 806 -78 658 3 659 3 700 25 56 30 103 79 128 133 l21 45
0 1625 0 1625 -24 53 c-19 43 -45 71 -123 138 -236 204 -342 409 -355 690 -6
119 -6 121 20 146 42 42 49 90 45 327 -3 240 -6 252 -71 291 -30 19 -52 20
-362 20 -306 0 -332 -1 -359 -19z m578 -773 c3 -68 9 -140 12 -160 l6 -38
-237 0 -237 0 6 23 c3 12 12 84 18 160 l11 137 207 0 207 0 7 -122z m105 -430
c59 -119 154 -240 271 -342 56 -49 105 -98 111 -107 9 -19 13 -1069 4 -1069
-3 0 -119 52 -258 116 -139 64 -334 154 -434 200 -100 46 -190 84 -200 84 -29
-1 -62 -32 -69 -66 -12 -62 -24 -56 753 -412 l212 -97 1 -57 0 -57 -97 45
c-54 25 -195 90 -313 145 -118 55 -395 184 -615 287 l-400 188 -3 52 c-2 29 0
52 4 52 3 0 44 -18 90 -39 111 -52 140 -55 174 -19 27 30 26 74 -4 101 -13 12
-79 47 -145 77 l-121 54 0 193 c0 121 4 201 11 217 7 14 49 56 94 95 137 117
250 261 305 389 l22 52 283 0 283 0 41 -82z m-588 -2082 c238 -111 477 -223
530 -248 53 -25 176 -83 273 -128 l176 -83 0 -44 c0 -39 -2 -43 -17 -34 -10 5
-315 146 -678 314 -363 167 -677 313 -697 323 -35 16 -38 21 -38 61 0 24 4 43
8 43 4 0 204 -92 443 -204z m-1 -261 c234 -109 452 -210 485 -226 33 -15 157
-73 275 -128 l215 -99 3 -429 c1 -298 -1 -436 -9 -455 -6 -15 -23 -35 -38 -45
-24 -17 -66 -18 -662 -18 -677 0 -667 -1 -699 48 -21 31 -28 1562 -8 1554 7
-3 204 -94 438 -202z"/>
<path d="M1215 798 c-51 -28 -60 -80 -19 -119 l26 -24 466 -3 c503 -2 505 -2
529 50 17 34 1 81 -33 97 -34 15 -940 15 -969 -1z"/>
<path d="M1195 515 c-14 -13 -25 -36 -25 -50 0 -14 11 -37 25 -50 l24 -25 478
0 c512 1 502 0 522 51 11 30 -8 83 -34 93 -9 3 -230 6 -491 6 l-475 0 -24 -25z"/>
<path d="M2920 1591 c-22 -11 -44 -35 -57 -62 l-22 -44 59 -673 c67 -748 63
-727 142 -779 l42 -28 473 -3 c455 -2 474 -2 512 17 49 25 88 71 100 119 5 20
35 332 67 693 l57 656 -19 38 c-10 21 -32 48 -47 59 -28 21 -40 21 -650 24
-593 2 -624 1 -657 -17z m1215 -193 c-4 -35 -9 -99 -13 -143 l-7 -80 -289 -3
c-317 -3 -318 -3 -331 -62 -7 -33 9 -64 42 -79 15 -7 123 -11 293 -11 l269 0
-6 -52 c-3 -29 -15 -165 -27 -303 l-21 -250 -477 -3 -477 -2 -6 52 c-10 94
-45 499 -45 529 l0 29 91 0 c120 0 165 24 154 84 -10 59 -26 66 -152 66 -101
0 -113 2 -114 18 0 9 -6 74 -13 145 l-12 127 573 0 574 0 -6 -62z m-105 -1174
c0 -19 -5 -44 -10 -55 -10 -18 -26 -19 -449 -19 -348 0 -441 3 -449 13 -6 7
-14 32 -18 55 l-7 42 467 0 466 0 0 -36z"/>
</g>
</svg>
