<?xml version="1.0" standalone="no"?>
<!DOCTYPE svg PUBLIC "-//W3C//DTD SVG 20010904//EN"
 "http://www.w3.org/TR/2001/REC-SVG-20010904/DTD/svg10.dtd">
<svg version="1.0" xmlns="http://www.w3.org/2000/svg"
 width="512.000000pt" height="512.000000pt" viewBox="0 0 512.000000 512.000000"
 preserveAspectRatio="xMidYMid meet">

<g transform="translate(0.000000,512.000000) scale(0.100000,-0.100000)"
fill="#000000" stroke="none">
<path d="M966 4946 c-125 -47 -188 -166 -152 -288 48 -167 248 -231 375 -121
100 85 117 216 41 321 -59 82 -176 121 -264 88z m129 -181 c14 -13 25 -31 25
-39 0 -28 -22 -64 -47 -75 -36 -16 -51 -14 -78 14 -29 28 -34 85 -9 109 24 25
81 20 109 -9z"/>
<path d="M3287 4946 c-150 -56 -211 -229 -125 -356 61 -90 159 -126 260 -96
167 48 231 248 121 375 -64 75 -173 108 -256 77z m106 -157 c25 -11 47 -47 47
-75 0 -8 -11 -26 -25 -39 -28 -29 -85 -34 -109 -9 -25 24 -20 81 9 109 27 28
42 30 78 14z"/>
<path d="M2526 4541 c-116 -39 -201 -115 -253 -228 -36 -78 -38 -208 -4 -296
63 -161 196 -250 376 -251 97 0 148 16 229 72 102 70 174 227 162 351 -25 246
-285 426 -510 352z m221 -170 c170 -87 174 -319 6 -418 -89 -52 -213 -33 -284
44 -62 66 -80 141 -55 228 42 142 203 213 333 146z"/>
<path d="M1435 4387 c-94 -32 -168 -96 -207 -182 -33 -72 -32 -182 2 -250 31
-64 101 -134 165 -165 68 -34 178 -35 250 -2 65 30 138 102 167 166 50 111 21
263 -67 351 -75 75 -217 112 -310 82z m151 -166 c119 -54 121 -219 4 -279 -35
-18 -55 -22 -89 -18 -154 20 -189 233 -48 296 53 24 81 25 133 1z"/>
<path d="M3074 3740 c-105 -21 -215 -83 -294 -164 -36 -37 -51 -46 -80 -46
-49 0 -153 -26 -199 -49 -20 -11 -60 -38 -88 -60 l-51 -40 -69 7 c-37 4 -88 5
-113 2 -40 -5 -50 -1 -85 27 -132 105 -337 149 -499 107 -212 -55 -389 -244
-422 -454 -4 -26 -12 -40 -21 -40 -8 0 -72 10 -142 22 -106 18 -137 19 -198
11 -166 -24 -317 -141 -372 -288 -22 -58 -231 -1231 -231 -1295 0 -120 53
-243 142 -332 81 -81 152 -113 320 -143 73 -14 134 -25 135 -25 0 0 -1 -9 -4
-20 -3 -10 -25 -29 -50 -41 -52 -25 -98 -88 -108 -149 -14 -84 45 -183 128
-214 74 -28 1757 -318 1803 -311 50 7 125 54 144 90 11 21 20 25 60 25 45 0
144 33 1485 490 136 46 254 92 273 106 61 47 90 133 71 210 -15 60 -76 123
-139 144 -76 26 -65 43 57 85 151 53 215 89 276 155 94 102 134 214 124 355
-5 70 -29 148 -201 652 -107 315 -205 591 -217 615 -57 113 -201 214 -339 238
-84 15 -138 7 -286 -41 -66 -21 -125 -39 -130 -39 -6 0 -18 23 -28 51 -58 160
-224 308 -396 354 -59 16 -189 18 -256 5z m198 -161 c77 -16 160 -64 218 -125
27 -29 50 -57 50 -62 0 -5 -141 -57 -312 -115 -326 -111 -348 -122 -348 -176
0 -15 27 -107 60 -206 62 -187 67 -212 49 -248 -42 -82 -151 -73 -188 16 -10
23 -26 63 -35 90 -12 32 -27 52 -46 62 -39 20 -54 19 -86 -8 -23 -21 -27 -30
-25 -80 0 -31 -3 -67 -9 -81 -13 -34 -52 -58 -96 -58 -60 0 -87 36 -135 181
-60 180 -78 193 -207 146 -38 -14 -73 -25 -77 -25 -4 0 -5 19 -1 41 24 149
146 259 289 259 35 0 46 7 101 65 81 84 134 108 241 110 44 0 87 5 96 10 9 6
36 34 60 64 49 60 149 125 213 140 58 13 126 13 188 0z m-1418 -214 c58 -18
115 -51 170 -99 l39 -34 -36 -42 c-20 -23 -48 -71 -64 -106 -16 -38 -34 -64
-43 -64 -30 -1 -545 93 -553 100 -5 4 -1 23 9 41 85 166 301 258 478 204z
m2319 -120 c93 -24 155 -73 197 -154 6 -12 99 -280 206 -593 176 -518 194
-576 194 -638 0 -55 -6 -78 -31 -128 -43 -88 -89 -121 -243 -176 -70 -26 -129
-46 -131 -44 -10 13 -24 73 -18 78 5 4 46 20 93 36 102 35 166 83 200 150 21
41 25 62 24 129 -1 77 -8 101 -172 579 -94 274 -183 518 -197 542 -71 122
-204 155 -378 95 l-88 -30 -9 23 c-21 56 -20 57 70 88 105 36 179 56 205 57
12 1 46 -6 78 -14z m-553 -51 c7 -19 10 -37 8 -40 -6 -6 -541 -185 -543 -182
-6 9 -24 72 -21 75 6 6 520 182 533 182 6 1 17 -15 23 -35z m374 -1096 c184
-542 314 -911 326 -922 12 -13 35 -20 66 -21 57 -3 82 -26 61 -58 -9 -14 -240
-97 -832 -298 -450 -154 -829 -279 -841 -279 -47 0 -52 57 -7 81 13 7 31 26
40 42 17 34 43 -50 -366 1152 l-238 700 46 16 46 17 30 -29 c95 -89 251 -92
366 -8 12 9 24 6 58 -19 104 -75 252 -60 343 35 60 63 86 181 59 272 -6 19
-10 35 -8 36 4 3 532 184 538 184 3 1 144 -405 313 -901z m158 851 c26 -34
358 -1013 358 -1054 0 -56 -38 -90 -135 -122 -47 -15 -87 -25 -89 -22 -5 4
-406 1176 -406 1185 0 3 148 51 175 57 29 5 76 -15 97 -44z m-2509 -48 c148
-27 272 -52 276 -57 5 -5 11 -24 14 -41 5 -27 3 -33 -11 -33 -9 0 -152 24
-317 53 l-300 53 3 35 c5 46 8 49 40 43 15 -3 148 -27 295 -53z m-639 -11 c60
-11 113 -20 118 -20 9 0 10 -35 2 -66 -6 -21 -7 -21 -77 -8 -109 21 -183 18
-242 -10 -58 -27 -118 -86 -139 -136 -19 -46 -198 -1069 -198 -1135 -1 -94 60
-193 147 -237 21 -11 82 -28 135 -37 l95 -17 -3 -35 c-2 -19 -7 -37 -10 -41
-12 -12 -233 32 -288 56 -93 42 -161 138 -170 239 -4 38 22 208 100 652 90
512 110 608 133 655 46 89 155 158 253 159 19 0 84 -8 144 -19z m1214 -176
c10 -35 10 -36 -25 -50 -39 -17 -45 -14 -61 33 -10 30 -9 32 16 42 47 17 58
13 70 -25z m-564 -64 c187 -32 342 -64 345 -69 13 -20 364 -1062 359 -1066 -2
-2 -34 1 -71 7 -37 6 -70 8 -73 5 -7 -6 -153 -879 -154 -913 0 -24 14 -30 101
-40 l55 -6 74 456 c41 251 78 456 81 456 4 0 47 -119 95 -265 l89 -264 -34
-200 c-32 -190 -33 -201 -17 -225 9 -14 32 -32 51 -40 27 -12 35 -21 35 -40 0
-15 -8 -30 -19 -36 -15 -7 -230 27 -876 140 -471 83 -860 150 -866 150 -5 0
-14 11 -21 25 -15 33 1 51 54 58 80 11 66 -43 234 914 83 478 157 901 164 941
10 63 14 72 33 72 12 0 175 -27 361 -60z m-634 -12 c38 -7 70 -17 70 -23 0
-10 -211 -1229 -214 -1232 -1 -1 -44 6 -96 16 -81 16 -98 23 -122 50 -20 22
-28 42 -28 69 0 66 179 1065 196 1090 28 43 75 50 194 30z"/>
<path d="M3460 2556 c-51 -18 -64 -27 -62 -41 6 -31 503 -1490 511 -1498 12
-12 146 38 145 56 -3 35 -510 1507 -519 1506 -5 0 -39 -11 -75 -23z"/>
<path d="M3050 2416 c-50 -18 -64 -27 -62 -40 5 -30 504 -1491 511 -1499 4 -4
38 4 77 17 50 17 69 28 68 40 -4 37 -510 1506 -519 1505 -5 0 -39 -11 -75 -23z"/>
<path d="M2640 2275 c-42 -14 -64 -27 -62 -36 6 -29 505 -1494 511 -1502 4 -4
38 4 77 17 53 18 69 27 67 42 -3 40 -508 1504 -517 1503 -6 0 -40 -11 -76 -24z"/>
<path d="M1475 2298 c-3 -13 -64 -358 -135 -768 -71 -410 -132 -755 -135 -767
-5 -19 1 -22 73 -35 69 -13 78 -13 84 1 4 9 66 354 138 766 71 413 133 762
136 776 5 26 3 27 -59 38 -88 15 -96 14 -102 -11z"/>
<path d="M1771 1483 c-74 -422 -137 -780 -139 -794 -4 -24 -1 -26 74 -37 42
-7 79 -11 80 -9 5 5 274 1543 274 1565 0 16 -10 21 -51 26 -29 4 -64 9 -78 12
l-26 5 -134 -768z"/>
</g>
</svg>
