<?xml version="1.0" standalone="no"?>
<!DOCTYPE svg PUBLIC "-//W3C//DTD SVG 20010904//EN"
 "http://www.w3.org/TR/2001/REC-SVG-20010904/DTD/svg10.dtd">
<svg version="1.0" xmlns="http://www.w3.org/2000/svg"
 width="64.000000pt" height="64.000000pt" viewBox="0 0 64.000000 64.000000"
 preserveAspectRatio="xMidYMid meet">

<g transform="translate(0.000000,64.000000) scale(0.100000,-0.100000)"
fill="#000000" stroke="none">
<path d="M522 617 c-12 -13 -22 -28 -22 -34 0 -12 -79 -52 -143 -73 -40 -12
-140 -104 -210 -193 -21 -26 -63 -65 -93 -87 -36 -27 -54 -48 -54 -62 0 -29
139 -168 168 -168 14 0 34 16 57 47 19 27 35 51 35 56 0 17 -17 3 -48 -38 -18
-25 -38 -45 -45 -45 -15 0 -147 131 -147 146 0 6 10 19 23 30 22 19 22 19 4
-2 -9 -11 -17 -25 -17 -30 0 -15 127 -137 138 -133 5 2 28 27 50 55 42 53 129
130 137 122 3 -3 -15 -19 -40 -37 -40 -28 -57 -51 -39 -51 3 0 35 23 70 51 82
65 151 144 165 189 21 64 60 140 73 140 7 0 23 11 36 25 l24 25 -44 45 c-24
25 -47 45 -50 45 -4 0 -16 -10 -28 -23z m78 -52 c10 -12 10 -19 2 -27 -15 -15
-48 14 -38 31 10 15 21 14 36 -4z m-44 -64 c-8 -9 -24 -37 -35 -63 -11 -27
-23 -48 -25 -48 -7 0 8 39 29 80 8 16 15 32 15 36 0 3 -32 4 -71 2 l-70 -4 49
22 c27 12 53 27 57 34 5 8 16 3 36 -16 25 -24 27 -30 15 -43z m-80 -158 c-4
-11 -27 -41 -52 -67 l-46 -47 -47 43 c-68 62 -76 76 -56 98 9 10 13 24 9 35
-6 15 -3 17 12 13 12 -3 34 5 54 19 l35 23 48 -49 c37 -36 48 -53 43 -68z
m-272 5 c-19 -34 -78 -99 -107 -119 -25 -16 -23 -13 9 14 22 20 53 54 69 76
26 38 45 57 29 29z"/>
<path d="M337 393 c-4 -3 -7 -19 -7 -35 0 -25 4 -28 30 -28 38 0 49 23 25 50
-18 20 -36 25 -48 13z"/>
<path d="M421 326 c-8 -10 -9 -16 -1 -21 13 -8 30 3 30 21 0 18 -14 18 -29 0z"/>
</g>
</svg>
