<?xml version="1.0" standalone="no"?>
<!DOCTYPE svg PUBLIC "-//W3C//DTD SVG 20010904//EN"
 "http://www.w3.org/TR/2001/REC-SVG-20010904/DTD/svg10.dtd">
<svg version="1.0" xmlns="http://www.w3.org/2000/svg"
 width="64.000000pt" height="64.000000pt" viewBox="0 0 64.000000 64.000000"
 preserveAspectRatio="xMidYMid meet">

<g transform="translate(0.000000,64.000000) scale(0.100000,-0.100000)"
fill="#000000" stroke="none">
<path d="M282 598 c-7 -7 -12 -17 -12 -23 0 -7 -17 -17 -38 -23 -79 -24 -142
-92 -163 -176 -7 -27 -17 -46 -25 -46 -22 0 -16 -37 8 -54 14 -10 46 -16 88
-17 36 0 58 -3 50 -6 -8 -3 -41 -21 -72 -40 l-58 -34 0 -64 c0 -35 4 -66 8
-69 5 -3 33 15 61 39 52 44 54 45 124 45 61 0 82 6 137 33 48 23 69 41 80 64
10 21 22 33 35 33 28 0 61 25 68 50 4 14 0 20 -13 20 -13 0 -19 11 -24 39 -10
63 -63 132 -126 163 -55 27 -64 34 -88 63 -15 18 -24 19 -40 3z m32 -17 c3 -5
-1 -11 -9 -15 -9 -3 -15 0 -15 9 0 16 16 20 24 6z m74 -56 c63 -27 113 -87
127 -152 l7 -33 -221 0 -221 0 6 28 c16 69 72 136 135 161 37 15 126 13 167
-4z m152 -230 c-10 -13 -50 -15 -240 -15 -190 0 -230 2 -240 15 -11 13 17 15
240 15 223 0 251 -2 240 -15z m-156 -67 c-47 -24 -68 -29 -90 -24 l-29 8 45
23 c28 15 62 24 90 24 l45 0 -61 -31z m-121 5 c-42 -21 -41 -30 5 -42 52 -15
60 -14 120 14 60 28 66 29 57 15 -4 -6 -33 -24 -65 -40 -49 -25 -72 -30 -131
-30 -56 0 -77 -4 -101 -21 l-29 -21 3 43 c3 41 6 46 53 71 28 16 65 27 85 27
l35 0 -32 -16z m-166 -125 c-2 -13 -4 -3 -4 22 0 25 2 35 4 23 2 -13 2 -33 0
-45z"/>
<path d="M375 500 c-3 -5 3 -14 14 -19 23 -13 31 -14 31 -3 0 13 -39 32 -45
22z"/>
<path d="M430 455 c0 -3 9 -22 20 -42 11 -21 20 -43 20 -50 0 -7 5 -13 10 -13
6 0 10 5 10 12 0 19 -41 98 -51 98 -5 0 -9 -2 -9 -5z"/>
</g>
</svg>
